<svg xmlns="http://www.w3.org/2000/svg" viewBox="0 0 1200 600" width="1200" height="600" font-family="-apple-system,Segoe UI,Roboto,Helvetica,Arial,sans-serif">
<rect width="1200" height="600" fill="#ffffff"/>
<rect x="0" y="0" width="1200" height="72" fill="#fafafa"/>
<rect x="40" y="26" width="20" height="20" rx="4" fill="#2962ff"/>
<text x="70" y="42" font-size="19" font-weight="700" fill="#1a1a1a">openmyheic.com</text>
<text x="1160" y="42" font-size="18" font-weight="600" fill="#6b6b6b" text-anchor="end">HEIC in Canva</text>
<line x1="0" y1="72" x2="1200" y2="72" stroke="#e5e5e5" stroke-width="1"/><rect x="60" y="110" width="430" height="290" rx="10" fill="#ffffff" stroke="#e5e5e5" stroke-width="1.5"/><path d="M60 144 v-14 a10 10 0 0 1 10 -10 h410 a10 10 0 0 1 10 10 v14 z" fill="#f2f2f2"/><line x1="60" y1="144" x2="490" y2="144" stroke="#e5e5e5" stroke-width="1"/><circle cx="78" cy="127" r="6" fill="#ff5f57"/><circle cx="98" cy="127" r="6" fill="#febc2e"/><circle cx="118" cy="127" r="6" fill="#28c840"/><text x="275.0" y="132" font-size="14" font-weight="600" fill="#1a1a1a" text-anchor="middle">Canva — Uploads</text><rect x="90" y="170" width="370" height="70" rx="8" fill="#fff" stroke="#e5e5e5"/><rect x="105" y="189" width="200" height="32" rx="6" fill="#fafafa" stroke="#e5e5e5"/><rect x="113" y="196" width="16" height="18" rx="2" fill="#1a1a1a"/><text x="135" y="210" font-size="13" font-weight="600" fill="#1a1a1a">IMG_4021.HEIC</text><circle cx="289" cy="205" r="11" fill="#e5484d"/><text x="289" y="210" font-size="15" font-weight="700" fill="#fff" text-anchor="middle">×</text><rect x="320" y="196" width="130" height="18" rx="4" fill="#fdecec"/><text x="385" y="209" font-size="11.5" font-weight="600" fill="#e5484d" text-anchor="middle">Unsupported type</text><text x="105" y="270" font-size="12.5" fill="#6b6b6b">Canva accepts JPG, PNG, WEBP, SVG, HEIC ✗</text><rect x="90" y="290" width="370" height="90" rx="8" fill="#fafafa" stroke="#e5e5e5" stroke-dasharray="5 4"/><text x="275" y="332" font-size="13" fill="#6b6b6b" text-anchor="middle">Drag files here to upload</text><text x="275" y="352" font-size="12" fill="#6b6b6b" text-anchor="middle">JPG · PNG · WEBP</text><line x1="510" y1="250" x2="586" y2="250" stroke="#2962ff" stroke-width="4" stroke-linecap="round"/><path d="M584 241 l14 9 l-14 9" fill="none" stroke="#2962ff" stroke-width="4" stroke-linecap="round" stroke-linejoin="round"/><rect x="620" y="175" width="300" height="150" rx="10" fill="#ffffff" stroke="#e5e5e5" stroke-width="1.5"/><path d="M620 209 v-14 a10 10 0 0 1 10 -10 h280 a10 10 0 0 1 10 10 v14 z" fill="#f2f2f2"/><line x1="620" y1="209" x2="920" y2="209" stroke="#e5e5e5" stroke-width="1"/><circle cx="638" cy="192" r="6" fill="#ff5f57"/><circle cx="658" cy="192" r="6" fill="#febc2e"/><circle cx="678" cy="192" r="6" fill="#28c840"/><text x="770.0" y="197" font-size="14" font-weight="600" fill="#1a1a1a" text-anchor="middle">openmyheic.com</text><rect x="640" y="227" width="260" height="58" rx="8" fill="#fafafa" stroke="#2962ff" stroke-width="1.5" stroke-dasharray="5 4"/><text x="770" y="253" font-size="13" fill="#6b6b6b" text-anchor="middle">Drop HEIC — 100% in your browser</text><text x="770" y="271" font-size="12" fill="#6b6b6b" text-anchor="middle">no upload · no account</text><rect x="710" y="295" width="120" height="38" rx="7" fill="#2962ff" stroke="none"/><text x="770.0" y="320" font-size="14" font-weight="600" fill="#fff" text-anchor="middle">Download JPG</text><rect x="950" y="110" width="210" height="290" rx="10" fill="#fafafa" stroke="#e5e5e5"/><text x="1055" y="150" font-size="15" font-weight="700" fill="#1a1a1a" text-anchor="middle">Back in Canva</text><circle cx="988" cy="195" r="13" fill="#2962ff"/><text x="988" y="200" font-size="14" font-weight="700" fill="#fff" text-anchor="middle">1</text><text x="1009" y="200" font-size="15" font-weight="600" fill="#1a1a1a">Upload the JPG</text><circle cx="988" cy="235" r="13" fill="#2962ff"/><text x="988" y="240" font-size="14" font-weight="700" fill="#fff" text-anchor="middle">2</text><text x="1009" y="240" font-size="15" font-weight="600" fill="#1a1a1a">Drag to design</text><circle cx="1055" cy="320" r="30" fill="#2e9e5b"/><path d="M1041 320 l10 11 l18 -22" stroke="#fff" stroke-width="5" fill="none" stroke-linecap="round" stroke-linejoin="round"/><line x1="0" y1="554" x2="1200" y2="554" stroke="#e5e5e5" stroke-width="1"/>
<text x="40" y="580" font-size="14" fill="#6b6b6b">Free to share — please credit with a link to openmyheic.com</text>
<text x="1160" y="580" font-size="14" font-weight="600" fill="#2962ff" text-anchor="end">openmyheic.com</text>
</svg>