<svg xmlns="http://www.w3.org/2000/svg" viewBox="0 0 1200 620" width="1200" height="620" font-family="-apple-system,Segoe UI,Roboto,Helvetica,Arial,sans-serif">
<rect width="1200" height="620" fill="#ffffff"/>
<rect x="0" y="0" width="1200" height="72" fill="#fafafa"/>
<rect x="40" y="26" width="20" height="20" rx="4" fill="#2962ff"/>
<text x="70" y="42" font-size="19" font-weight="700" fill="#1a1a1a">openmyheic.com</text>
<text x="1160" y="42" font-size="18" font-weight="600" fill="#6b6b6b" text-anchor="end">HEIC in Photoshop</text>
<line x1="0" y1="72" x2="1200" y2="72" stroke="#e5e5e5" stroke-width="1"/><rect x="60" y="110" width="440" height="300" rx="10" fill="#2a2a2a" stroke="#e5e5e5" stroke-width="1.5"/><path d="M60 144 v-14 a10 10 0 0 1 10 -10 h420 a10 10 0 0 1 10 10 v14 z" fill="#3a3a3a"/><line x1="60" y1="144" x2="500" y2="144" stroke="#e5e5e5" stroke-width="1"/><circle cx="78" cy="127" r="6" fill="#ff5f57"/><circle cx="98" cy="127" r="6" fill="#febc2e"/><circle cx="118" cy="127" r="6" fill="#28c840"/><text x="280.0" y="132" font-size="14" font-weight="600" fill="#e8e8e8" text-anchor="middle">Adobe Photoshop 2026</text><rect x="120" y="200" width="330" height="150" rx="10" fill="#ffffff" stroke="#e5e5e5" stroke-width="1.5"/><circle cx="160" cy="245" r="18" fill="#e5484d"/><text x="160" y="252" font-size="22" font-weight="700" fill="#fff" text-anchor="middle">!</text><text x="190" y="238" font-size="13.5" font-weight="600" fill="#1a1a1a">Could not complete your request</text><text x="190" y="258" font-size="13" fill="#6b6b6b">because it is not the right kind</text><text x="190" y="276" font-size="13" fill="#6b6b6b">of document.</text><rect x="330" y="308" width="90" height="38" rx="7" fill="#2962ff" stroke="none"/><text x="375.0" y="333" font-size="14" font-weight="600" fill="#fff" text-anchor="middle">OK</text><text x="140" y="392" font-size="13" fill="#6b6b6b">photo_4021.HEIC</text><line x1="520" y1="255" x2="596" y2="255" stroke="#2962ff" stroke-width="4" stroke-linecap="round"/><path d="M594 246 l14 9 l-14 9" fill="none" stroke="#2962ff" stroke-width="4" stroke-linecap="round" stroke-linejoin="round"/><rect x="630" y="180" width="300" height="150" rx="10" fill="#ffffff" stroke="#e5e5e5" stroke-width="1.5"/><path d="M630 214 v-14 a10 10 0 0 1 10 -10 h280 a10 10 0 0 1 10 10 v14 z" fill="#f2f2f2"/><line x1="630" y1="214" x2="930" y2="214" stroke="#e5e5e5" stroke-width="1"/><circle cx="648" cy="197" r="6" fill="#ff5f57"/><circle cx="668" cy="197" r="6" fill="#febc2e"/><circle cx="688" cy="197" r="6" fill="#28c840"/><text x="780.0" y="202" font-size="14" font-weight="600" fill="#1a1a1a" text-anchor="middle">openmyheic.com</text><rect x="650" y="232" width="260" height="58" rx="8" fill="#fafafa" stroke="#2962ff" stroke-width="1.5" stroke-dasharray="5 4"/><text x="780" y="258" font-size="13" fill="#6b6b6b" text-anchor="middle">Drop HEIC — 100% in your browser</text><text x="780" y="276" font-size="12" fill="#6b6b6b" text-anchor="middle">no upload · no account</text><rect x="720" y="300" width="120" height="38" rx="7" fill="#2962ff" stroke="none"/><text x="780.0" y="325" font-size="14" font-weight="600" fill="#fff" text-anchor="middle">Download JPG</text><rect x="960" y="110" width="200" height="300" rx="10" fill="#fafafa" stroke="#e5e5e5"/><text x="1060" y="150" font-size="15" font-weight="700" fill="#1a1a1a" text-anchor="middle">In Photoshop</text><circle cx="998" cy="195" r="13" fill="#2962ff"/><text x="998" y="200" font-size="14" font-weight="700" fill="#fff" text-anchor="middle">1</text><text x="1019" y="200" font-size="15" font-weight="600" fill="#1a1a1a">Save as JPG</text><circle cx="998" cy="235" r="13" fill="#2962ff"/><text x="998" y="240" font-size="14" font-weight="700" fill="#fff" text-anchor="middle">2</text><text x="1019" y="240" font-size="15" font-weight="600" fill="#1a1a1a">File → Open</text><circle cx="998" cy="275" r="13" fill="#2962ff"/><text x="998" y="280" font-size="14" font-weight="700" fill="#fff" text-anchor="middle">3</text><text x="1019" y="280" font-size="15" font-weight="600" fill="#1a1a1a">Opens fine</text><circle cx="1060" cy="345" r="30" fill="#2e9e5b"/><path d="M1046 345 l10 11 l18 -22" stroke="#fff" stroke-width="5" fill="none" stroke-linecap="round" stroke-linejoin="round"/><line x1="0" y1="574" x2="1200" y2="574" stroke="#e5e5e5" stroke-width="1"/>
<text x="40" y="600" font-size="14" fill="#6b6b6b">Free to share — please credit with a link to openmyheic.com</text>
<text x="1160" y="600" font-size="14" font-weight="600" fill="#2962ff" text-anchor="end">openmyheic.com</text>
</svg>