<svg xmlns="http://www.w3.org/2000/svg" viewBox="0 0 1200 600" width="1200" height="600" font-family="-apple-system,Segoe UI,Roboto,Helvetica,Arial,sans-serif">
<rect width="1200" height="600" fill="#ffffff"/>
<rect x="0" y="0" width="1200" height="72" fill="#fafafa"/>
<rect x="40" y="26" width="20" height="20" rx="4" fill="#2962ff"/>
<text x="70" y="42" font-size="19" font-weight="700" fill="#1a1a1a">openmyheic.com</text>
<text x="1160" y="42" font-size="18" font-weight="600" fill="#6b6b6b" text-anchor="end">HEIC in Google Drive &amp; Docs</text>
<line x1="0" y1="72" x2="1200" y2="72" stroke="#e5e5e5" stroke-width="1"/><rect x="60" y="110" width="430" height="300" rx="10" fill="#ffffff" stroke="#e5e5e5" stroke-width="1.5"/><path d="M60 144 v-14 a10 10 0 0 1 10 -10 h410 a10 10 0 0 1 10 10 v14 z" fill="#f2f2f2"/><line x1="60" y1="144" x2="490" y2="144" stroke="#e5e5e5" stroke-width="1"/><circle cx="78" cy="127" r="6" fill="#ff5f57"/><circle cx="98" cy="127" r="6" fill="#febc2e"/><circle cx="118" cy="127" r="6" fill="#28c840"/><text x="275.0" y="132" font-size="14" font-weight="600" fill="#1a1a1a" text-anchor="middle">Google Drive</text><rect x="90" y="165" width="370" height="210" rx="8" fill="#fff" stroke="#e5e5e5"/><rect x="90" y="165" width="370" height="210" rx="8" fill="#1f1f1f" opacity="0.03"/><rect x="215" y="205" width="120" height="90" rx="6" fill="#fafafa" stroke="#e5e5e5"/><path d="M240 275 l20 -26 l18 22 l12 -14 l18 18 z" fill="#e5e5e5"/><circle cx="248" cy="228" r="8" fill="#e5e5e5"/><text x="275" y="322" font-size="13" font-weight="600" fill="#1a1a1a" text-anchor="middle">trip.HEIC</text><text x="275" y="348" font-size="13" fill="#6b6b6b" text-anchor="middle">No preview available</text><line x1="510" y1="255" x2="586" y2="255" stroke="#2962ff" stroke-width="4" stroke-linecap="round"/><path d="M584 246 l14 9 l-14 9" fill="none" stroke="#2962ff" stroke-width="4" stroke-linecap="round" stroke-linejoin="round"/><rect x="620" y="180" width="300" height="150" rx="10" fill="#ffffff" stroke="#e5e5e5" stroke-width="1.5"/><path d="M620 214 v-14 a10 10 0 0 1 10 -10 h280 a10 10 0 0 1 10 10 v14 z" fill="#f2f2f2"/><line x1="620" y1="214" x2="920" y2="214" stroke="#e5e5e5" stroke-width="1"/><circle cx="638" cy="197" r="6" fill="#ff5f57"/><circle cx="658" cy="197" r="6" fill="#febc2e"/><circle cx="678" cy="197" r="6" fill="#28c840"/><text x="770.0" y="202" font-size="14" font-weight="600" fill="#1a1a1a" text-anchor="middle">openmyheic.com</text><rect x="640" y="232" width="260" height="58" rx="8" fill="#fafafa" stroke="#2962ff" stroke-width="1.5" stroke-dasharray="5 4"/><text x="770" y="258" font-size="13" fill="#6b6b6b" text-anchor="middle">Drop HEIC — 100% in your browser</text><text x="770" y="276" font-size="12" fill="#6b6b6b" text-anchor="middle">no upload · no account</text><rect x="710" y="300" width="120" height="38" rx="7" fill="#2962ff" stroke="none"/><text x="770.0" y="325" font-size="14" font-weight="600" fill="#fff" text-anchor="middle">Download JPG</text><rect x="950" y="110" width="210" height="300" rx="10" fill="#fafafa" stroke="#e5e5e5"/><text x="1055" y="150" font-size="15" font-weight="700" fill="#1a1a1a" text-anchor="middle">JPG in Drive</text><circle cx="988" cy="190" r="13" fill="#2962ff"/><text x="988" y="195" font-size="14" font-weight="700" fill="#fff" text-anchor="middle">✓</text><text x="1009" y="195" font-size="15" font-weight="600" fill="#1a1a1a">Thumbnail shows</text><circle cx="988" cy="232" r="13" fill="#2962ff"/><text x="988" y="237" font-size="14" font-weight="700" fill="#fff" text-anchor="middle">✓</text><text x="1009" y="237" font-size="15" font-weight="600" fill="#1a1a1a">Insert → Docs / Slides</text><circle cx="988" cy="274" r="13" fill="#2962ff"/><text x="988" y="279" font-size="14" font-weight="700" fill="#fff" text-anchor="middle">✓</text><text x="1009" y="279" font-size="15" font-weight="600" fill="#1a1a1a">Share links preview</text><circle cx="1055" cy="352" r="28" fill="#2e9e5b"/><path d="M1042 352 l9 10 l17 -20" stroke="#fff" stroke-width="5" fill="none" stroke-linecap="round" stroke-linejoin="round"/><line x1="0" y1="554" x2="1200" y2="554" stroke="#e5e5e5" stroke-width="1"/>
<text x="40" y="580" font-size="14" fill="#6b6b6b">Free to share — please credit with a link to openmyheic.com</text>
<text x="1160" y="580" font-size="14" font-weight="600" fill="#2962ff" text-anchor="end">openmyheic.com</text>
</svg>