<svg xmlns="http://www.w3.org/2000/svg" viewBox="0 0 1200 590" width="1200" height="590" font-family="-apple-system,Segoe UI,Roboto,Helvetica,Arial,sans-serif">
<rect width="1200" height="590" fill="#ffffff"/>
<rect x="0" y="0" width="1200" height="72" fill="#fafafa"/>
<rect x="40" y="26" width="20" height="20" rx="4" fill="#2962ff"/>
<text x="70" y="42" font-size="19" font-weight="700" fill="#1a1a1a">openmyheic.com</text>
<text x="1160" y="42" font-size="18" font-weight="600" fill="#6b6b6b" text-anchor="end">HEIC Codec on Windows 10</text>
<line x1="0" y1="72" x2="1200" y2="72" stroke="#e5e5e5" stroke-width="1"/><rect x="60" y="120" width="470" height="290" rx="10" fill="#ffffff" stroke="#e5e5e5" stroke-width="1.5"/><path d="M60 154 v-14 a10 10 0 0 1 10 -10 h450 a10 10 0 0 1 10 10 v14 z" fill="#f2f2f2"/><line x1="60" y1="154" x2="530" y2="154" stroke="#e5e5e5" stroke-width="1"/><circle cx="78" cy="137" r="6" fill="#ff5f57"/><circle cx="98" cy="137" r="6" fill="#febc2e"/><circle cx="118" cy="137" r="6" fill="#28c840"/><text x="295.0" y="142" font-size="14" font-weight="600" fill="#1a1a1a" text-anchor="middle">Microsoft Store</text><text x="95" y="185" font-size="16" font-weight="700" fill="#1a1a1a">HEVC Video Extensions</text><text x="95" y="210" font-size="12.5" fill="#6b6b6b">Required to open many HEIC photos on Windows 10</text><rect x="95" y="230" width="120" height="46" rx="8" fill="#2962ff"/><text x="155" y="259" font-size="17" font-weight="700" fill="#fff" text-anchor="middle">$0.99</text><text x="95" y="315" font-size="12.5" fill="#6b6b6b">The free “HEIF Image Extensions” alone often</text><text x="95" y="335" font-size="12.5" fill="#6b6b6b">isn’t enough — HEVC compression needs the paid one.</text><text x="95" y="372" font-size="13" font-weight="600" fill="#e5484d">Pay per PC · admin rights · still no JPG</text><text x="590" y="250" font-size="26" font-weight="700" fill="#6b6b6b" text-anchor="middle">vs</text><rect x="650" y="140" width="510" height="250" rx="10" fill="#fafafa" stroke="#2962ff" stroke-width="1.5"/><text x="675" y="180" font-size="16" font-weight="700" fill="#2962ff">Free fix — no codec</text><circle cx="688" cy="215" r="11" fill="#2e9e5b"/><path d="M683 215 l4 4 l6 -8" stroke="#fff" stroke-width="2.5" fill="none" stroke-linecap="round" stroke-linejoin="round"/><text x="708" y="220" font-size="13.5" fill="#1a1a1a">Convert HEIC → JPG in your browser</text><circle cx="688" cy="248" r="11" fill="#2e9e5b"/><path d="M683 248 l4 4 l6 -8" stroke="#fff" stroke-width="2.5" fill="none" stroke-linecap="round" stroke-linejoin="round"/><text x="708" y="253" font-size="13.5" fill="#1a1a1a">$0 · no install · no admin rights</text><circle cx="688" cy="281" r="11" fill="#2e9e5b"/><path d="M683 281 l4 4 l6 -8" stroke="#fff" stroke-width="2.5" fill="none" stroke-linecap="round" stroke-linejoin="round"/><text x="708" y="286" font-size="13.5" fill="#1a1a1a">JPG opens on any Windows 10 PC</text><rect x="675" y="315" width="240" height="38" rx="7" fill="#2962ff" stroke="none"/><text x="795.0" y="340" font-size="14" font-weight="600" fill="#fff" text-anchor="middle">Open the free converter</text><line x1="0" y1="544" x2="1200" y2="544" stroke="#e5e5e5" stroke-width="1"/>
<text x="40" y="570" font-size="14" fill="#6b6b6b">Free to share — please credit with a link to openmyheic.com</text>
<text x="1160" y="570" font-size="14" font-weight="600" fill="#2962ff" text-anchor="end">openmyheic.com</text>
</svg>