<svg xmlns="http://www.w3.org/2000/svg" viewBox="0 0 1200 590" width="1200" height="590" font-family="-apple-system,Segoe UI,Roboto,Helvetica,Arial,sans-serif">
<rect width="1200" height="590" fill="#ffffff"/>
<rect x="0" y="0" width="1200" height="72" fill="#fafafa"/>
<rect x="40" y="26" width="20" height="20" rx="4" fill="#2962ff"/>
<text x="70" y="42" font-size="19" font-weight="700" fill="#1a1a1a">openmyheic.com</text>
<text x="1160" y="42" font-size="18" font-weight="600" fill="#6b6b6b" text-anchor="end">HEIC on Chromebook</text>
<line x1="0" y1="72" x2="1200" y2="72" stroke="#e5e5e5" stroke-width="1"/><rect x="60" y="120" width="430" height="280" rx="10" fill="#ffffff" stroke="#e5e5e5" stroke-width="1.5"/><path d="M60 154 v-14 a10 10 0 0 1 10 -10 h410 a10 10 0 0 1 10 10 v14 z" fill="#f2f2f2"/><line x1="60" y1="154" x2="490" y2="154" stroke="#e5e5e5" stroke-width="1"/><circle cx="78" cy="137" r="6" fill="#ff5f57"/><circle cx="98" cy="137" r="6" fill="#febc2e"/><circle cx="118" cy="137" r="6" fill="#28c840"/><text x="275.0" y="142" font-size="14" font-weight="600" fill="#1a1a1a" text-anchor="middle">Gallery — ChromeOS</text><rect x="90" y="175" width="370" height="200" rx="8" fill="#111" opacity="0.9"/><circle cx="275" cy="248" r="30" fill="none" stroke="#888" stroke-width="3"/><line x1="256" y1="229" x2="294" y2="267" stroke="#888" stroke-width="3"/><text x="275" y="315" font-size="14" font-weight="600" fill="#e8e8e8" text-anchor="middle">Can’t open this file</text><text x="275" y="338" font-size="12.5" fill="#b0b0b0" text-anchor="middle">sunset.HEIC — format not supported</text><line x1="510" y1="255" x2="586" y2="255" stroke="#2962ff" stroke-width="4" stroke-linecap="round"/><path d="M584 246 l14 9 l-14 9" fill="none" stroke="#2962ff" stroke-width="4" stroke-linecap="round" stroke-linejoin="round"/><rect x="620" y="140" width="300" height="220" rx="10" fill="#ffffff" stroke="#e5e5e5" stroke-width="1.5"/><path d="M620 174 v-14 a10 10 0 0 1 10 -10 h280 a10 10 0 0 1 10 10 v14 z" fill="#f2f2f2"/><line x1="620" y1="174" x2="920" y2="174" stroke="#e5e5e5" stroke-width="1"/><circle cx="638" cy="157" r="6" fill="#ff5f57"/><circle cx="658" cy="157" r="6" fill="#febc2e"/><circle cx="678" cy="157" r="6" fill="#28c840"/><text x="770.0" y="162" font-size="14" font-weight="600" fill="#1a1a1a" text-anchor="middle">Chrome browser</text><rect x="640" y="185" width="260" height="42" rx="21" fill="#fafafa" stroke="#e5e5e5"/><text x="655" y="211" font-size="13" fill="#6b6b6b">🔒 openmyheic.com</text><rect x="640" y="240" width="260" height="70" rx="8" fill="#fafafa" stroke="#2962ff" stroke-width="1.5" stroke-dasharray="5 4"/><text x="770" y="270" font-size="12.5" fill="#6b6b6b" text-anchor="middle">Drop HEIC — view instantly</text><text x="770" y="290" font-size="12" fill="#6b6b6b" text-anchor="middle">works offline, on-device</text><rect x="710" y="322" width="120" height="38" rx="7" fill="#2962ff" stroke="none"/><text x="770.0" y="347" font-size="14" font-weight="600" fill="#fff" text-anchor="middle">Download JPG</text><rect x="965" y="140" width="180" height="220" rx="10" fill="#fafafa" stroke="#e5e5e5"/><circle cx="995" cy="185" r="13" fill="#2962ff"/><text x="995" y="190" font-size="14" font-weight="700" fill="#fff" text-anchor="middle">1</text><text x="1016" y="190" font-size="15" font-weight="600" fill="#1a1a1a">Open Chrome</text><circle cx="995" cy="225" r="13" fill="#2962ff"/><text x="995" y="230" font-size="14" font-weight="700" fill="#fff" text-anchor="middle">2</text><text x="1016" y="230" font-size="15" font-weight="600" fill="#1a1a1a">Drop the HEIC</text><circle cx="995" cy="265" r="13" fill="#2962ff"/><text x="995" y="270" font-size="14" font-weight="700" fill="#fff" text-anchor="middle">3</text><text x="1016" y="270" font-size="15" font-weight="600" fill="#1a1a1a">View / save JPG</text><circle cx="1055" cy="325" r="24" fill="#2e9e5b"/><path d="M1044 325 l8 9 l15 -18" stroke="#fff" stroke-width="4.5" fill="none" stroke-linecap="round" stroke-linejoin="round"/><line x1="0" y1="544" x2="1200" y2="544" stroke="#e5e5e5" stroke-width="1"/>
<text x="40" y="570" font-size="14" fill="#6b6b6b">Free to share — please credit with a link to openmyheic.com</text>
<text x="1160" y="570" font-size="14" font-weight="600" fill="#2962ff" text-anchor="end">openmyheic.com</text>
</svg>