<svg xmlns="http://www.w3.org/2000/svg" viewBox="0 0 1200 590" width="1200" height="590" font-family="-apple-system,Segoe UI,Roboto,Helvetica,Arial,sans-serif">
<rect width="1200" height="590" fill="#ffffff"/>
<rect x="0" y="0" width="1200" height="72" fill="#fafafa"/>
<rect x="40" y="26" width="20" height="20" rx="4" fill="#2962ff"/>
<text x="70" y="42" font-size="19" font-weight="700" fill="#1a1a1a">openmyheic.com</text>
<text x="1160" y="42" font-size="18" font-weight="600" fill="#6b6b6b" text-anchor="end">HEIC in WordPress</text>
<line x1="0" y1="72" x2="1200" y2="72" stroke="#e5e5e5" stroke-width="1"/><rect x="60" y="120" width="440" height="290" rx="10" fill="#ffffff" stroke="#e5e5e5" stroke-width="1.5"/><path d="M60 154 v-14 a10 10 0 0 1 10 -10 h420 a10 10 0 0 1 10 10 v14 z" fill="#f2f2f2"/><line x1="60" y1="154" x2="500" y2="154" stroke="#e5e5e5" stroke-width="1"/><circle cx="78" cy="137" r="6" fill="#ff5f57"/><circle cx="98" cy="137" r="6" fill="#febc2e"/><circle cx="118" cy="137" r="6" fill="#28c840"/><text x="280.0" y="142" font-size="14" font-weight="600" fill="#1a1a1a" text-anchor="middle">Media Library — Upload</text><rect x="90" y="175" width="380" height="90" rx="8" fill="#fdecec" stroke="#e5484d" stroke-width="1.5"/><circle cx="130" cy="220" r="18" fill="#e5484d"/><text x="130" y="227" font-size="20" font-weight="700" fill="#fff" text-anchor="middle">×</text><text x="160" y="210" font-size="13" font-weight="600" fill="#1a1a1a">img_4021.heic</text><text x="160" y="232" font-size="12.5" fill="#6b6b6b">Sorry, this file type is not permitted</text><text x="160" y="250" font-size="12.5" fill="#6b6b6b">for security reasons.</text><text x="90" y="300" font-size="12.5" fill="#6b6b6b">WordPress blocks .heic uploads by default —</text><text x="90" y="320" font-size="12.5" fill="#6b6b6b">and most themes can’t display them anyway.</text><line x1="520" y1="250" x2="596" y2="250" stroke="#2962ff" stroke-width="4" stroke-linecap="round"/><path d="M594 241 l14 9 l-14 9" fill="none" stroke="#2962ff" stroke-width="4" stroke-linecap="round" stroke-linejoin="round"/><rect x="630" y="175" width="300" height="150" rx="10" fill="#ffffff" stroke="#e5e5e5" stroke-width="1.5"/><path d="M630 209 v-14 a10 10 0 0 1 10 -10 h280 a10 10 0 0 1 10 10 v14 z" fill="#f2f2f2"/><line x1="630" y1="209" x2="930" y2="209" stroke="#e5e5e5" stroke-width="1"/><circle cx="648" cy="192" r="6" fill="#ff5f57"/><circle cx="668" cy="192" r="6" fill="#febc2e"/><circle cx="688" cy="192" r="6" fill="#28c840"/><text x="780.0" y="197" font-size="14" font-weight="600" fill="#1a1a1a" text-anchor="middle">openmyheic.com</text><rect x="650" y="227" width="260" height="58" rx="8" fill="#fafafa" stroke="#2962ff" stroke-width="1.5" stroke-dasharray="5 4"/><text x="780" y="253" font-size="13" fill="#6b6b6b" text-anchor="middle">Drop HEIC — 100% in your browser</text><text x="780" y="271" font-size="12" fill="#6b6b6b" text-anchor="middle">no upload · no account</text><rect x="720" y="295" width="120" height="38" rx="7" fill="#2962ff" stroke="none"/><text x="780.0" y="320" font-size="14" font-weight="600" fill="#fff" text-anchor="middle">Download JPG</text><rect x="960" y="120" width="200" height="290" rx="10" fill="#fafafa" stroke="#e5e5e5"/><text x="1060" y="160" font-size="15" font-weight="700" fill="#1a1a1a" text-anchor="middle">Upload the JPG</text><rect x="982" y="190" width="155" height="32" rx="6" fill="#fafafa" stroke="#e5e5e5"/><rect x="990" y="197" width="16" height="18" rx="2" fill="#2962ff"/><text x="1012" y="211" font-size="13" font-weight="600" fill="#1a1a1a">img_4021.jpg</text><circle cx="1121" cy="206" r="11" fill="#2e9e5b"/><path d="M1116 206 l4 4 l6 -8" stroke="#fff" stroke-width="2.5" fill="none" stroke-linecap="round" stroke-linejoin="round"/><circle cx="995" cy="250" r="13" fill="#2962ff"/><text x="995" y="255" font-size="14" font-weight="700" fill="#fff" text-anchor="middle">✓</text><text x="1016" y="255" font-size="15" font-weight="600" fill="#1a1a1a">Accepted</text><circle cx="995" cy="292" r="13" fill="#2962ff"/><text x="995" y="297" font-size="14" font-weight="700" fill="#fff" text-anchor="middle">✓</text><text x="1016" y="297" font-size="15" font-weight="600" fill="#1a1a1a">Shows in theme</text><circle cx="1060" cy="360" r="26" fill="#2e9e5b"/><path d="M1048 360 l8 9 l16 -19" stroke="#fff" stroke-width="4.5" fill="none" stroke-linecap="round" stroke-linejoin="round"/><line x1="0" y1="544" x2="1200" y2="544" stroke="#e5e5e5" stroke-width="1"/>
<text x="40" y="570" font-size="14" fill="#6b6b6b">Free to share — please credit with a link to openmyheic.com</text>
<text x="1160" y="570" font-size="14" font-weight="600" fill="#2962ff" text-anchor="end">openmyheic.com</text>
</svg>